<mxfile host="app.diagrams.net" modified="2023-05-05T03:32:22.569Z" agent="Mozilla/5.0 (Windows NT 10.0; Win64; x64) AppleWebKit/537.36 (KHTML, like Gecko) Chrome/112.0.0.0 Safari/537.36" version="21.2.1" etag="M80Kzewu8QRCFTfWppHo" type="github">
  <diagram name="第 1 页" id="Wx-COD4XJh1Bupa5wpon">
    <mxGraphModel>
      <root>
        <mxCell id="0" />
        <mxCell id="1" parent="0" />
      </root>
    </mxGraphModel>
  </diagram>
</mxfile>
